<svg width="300" height="300" viewBox="0 0 300 300" fill="none" xmlns="http://www.w3.org/2000/svg">
<rect width="300" height="300" rx="150" fill="white"/>
<path d="M226.895 55.8028C224.825 52.6366 221.801 52.5458 218.355 52.4421C217.964 52.4304 217.568 52.4184 217.167 52.4019C216.862 52.3879 216.525 52.3933 216.174 52.399C214.776 52.4213 213.142 52.4476 212.318 51.2748C211.363 49.915 211.454 47.2872 211.528 45.118C211.552 44.4325 211.574 43.7924 211.561 43.253C211.426 38.2137 211.147 32.8606 209.198 31.0711C207.73 29.7285 203.335 29.9145 199.283 30.086C197.969 30.1416 196.692 30.1957 195.56 30.1957H109.3C107.562 30.1957 105.742 30.0545 103.953 29.9157C100.467 29.6453 97.1025 29.3843 94.7129 30.1957C91.245 31.3791 91.0102 37.5975 90.789 43.4531L90.7771 43.7681C90.5915 48.6021 89.3919 52.3322 85.4162 51.9565C80.792 51.5265 76.1908 51.391 74.1001 55.5703C71.631 60.5153 72.1402 65.6915 73.0524 74.963C73.1826 76.2874 73.3211 77.6953 73.4604 79.1981H228.229C228.318 78.0997 228.412 77.0154 228.505 75.9486C229.23 67.6072 229.861 60.3393 226.895 55.8028Z" fill="#8047F8"/>
<path fill-rule="evenodd" clip-rule="evenodd" d="M85.5133 88.3936C87.9305 121.064 90.3213 153.772 92.7121 186.48L92.7136 186.501C94.0118 204.26 95.3099 222.019 96.6124 239.773H101.551C101.887 242.553 102.272 245.984 102.678 249.601C103.502 256.943 104.413 265.056 105.178 270.04H105.724C110.754 268.203 145.528 253.359 145.543 194.264C145.537 194.095 145.543 193.927 145.56 193.76H136.969C136.553 193.756 136.15 193.618 135.821 193.365C135.493 193.113 135.258 192.762 135.152 192.365C134.314 190.299 133.639 188.173 133.133 186.006C128.079 188.857 124.065 193.21 121.665 198.444C119.385 193.083 119.087 187.101 120.821 181.545C122.556 175.989 126.213 171.212 131.154 168.047C131.218 150.802 137.683 134.18 149.325 121.325L149.507 121.165C149.846 120.873 150.279 120.711 150.729 120.707C150.988 120.709 151.245 120.765 151.482 120.869C151.722 120.976 151.937 121.131 152.112 121.325C163.891 134.197 170.322 150.98 170.122 168.326C175.155 171.402 178.887 176.176 180.625 181.763C182.362 187.349 181.988 193.369 179.572 198.703C177.183 193.46 173.167 189.104 168.104 186.265C167.794 188.365 167.224 190.421 166.407 192.384C166.125 193.221 165.56 193.76 164.993 193.76H155.832C155.847 193.86 155.857 193.961 155.863 194.062L155.866 194.085V194.134C155.87 194.221 155.87 194.308 155.866 194.395C155.992 255.186 192.964 268.985 196.08 270.04H197.146C197.418 265.252 198.304 258.645 199.168 252.204C199.763 247.765 200.347 243.405 200.713 239.773H205.708C207.307 217.411 208.952 195.11 210.597 172.81L210.598 172.798V172.791C212.701 144.266 214.805 115.74 216.814 87.0804H85.8333C85.4562 87.1541 85.4819 87.77 85.5133 88.3936ZM150.729 120.707H150.719H150.739H150.729Z" fill="#8047F8"/>
</svg>
